<?xml version="1.0" standalone="no"?>
<!DOCTYPE svg PUBLIC "-//W3C//DTD SVG 20010904//EN"
 "http://www.w3.org/TR/2001/REC-SVG-20010904/DTD/svg10.dtd">
<svg version="1.0" xmlns="http://www.w3.org/2000/svg"
 width="32.000000pt" height="32.000000pt" viewBox="0 0 32.000000 32.000000"
 preserveAspectRatio="xMidYMid meet">

<g transform="translate(0.000000,32.000000) scale(0.100000,-0.100000)"
fill="#000000" stroke="none">
<path d="M45 205 c-64 -63 7 -169 80 -121 14 9 25 21 25 26 0 15 -17 12 -24
-5 -7 -18 -57 -20 -74 -3 -27 27 -13 38 49 38 l61 0 -6 28 c-8 32 -40 62 -68
62 -10 0 -30 -11 -43 -25z m83 -7 c26 -26 13 -38 -38 -38 -34 0 -50 4 -50 13
0 21 22 37 50 37 14 0 31 -5 38 -12z"/>
<path d="M184 197 c32 -42 32 -45 1 -87 -32 -43 -22 -55 11 -12 14 18 29 32
33 32 3 0 15 -13 24 -30 10 -16 23 -30 29 -30 6 0 3 10 -6 22 -39 54 -40 64
-11 102 15 20 23 36 17 36 -6 0 -21 -14 -33 -31 l-22 -31 -24 31 c-14 17 -29
31 -34 31 -6 0 1 -15 15 -33z"/>
</g>
</svg>
