<?xml version="1.0" standalone="no"?>
<!DOCTYPE svg PUBLIC "-//W3C//DTD SVG 20010904//EN"
 "http://www.w3.org/TR/2001/REC-SVG-20010904/DTD/svg10.dtd">
<svg version="1.0" xmlns="http://www.w3.org/2000/svg"
 width="57.000000pt" height="57.000000pt" viewBox="0 0 57.000000 57.000000"
 preserveAspectRatio="xMidYMid meet">

<g transform="translate(0.000000,57.000000) scale(0.100000,-0.100000)"
fill="#000000" stroke="none">
<path d="M123 531 c-18 -12 -33 -25 -33 -31 0 -5 -4 -10 -10 -10 -5 0 -10 11
-10 25 0 18 -5 25 -20 25 -19 0 -20 -7 -20 -185 0 -178 1 -185 20 -185 19 0
20 7 20 106 0 178 27 234 114 234 22 0 46 -4 53 -8 24 -15 33 -67 33 -198 0
-126 1 -134 19 -134 18 0 20 10 23 141 l3 141 33 29 c40 36 101 40 132 9 18
-18 20 -33 20 -170 0 -143 1 -150 20 -150 19 0 20 7 20 145 0 156 -8 188 -52
219 -43 30 -142 11 -170 -33 -12 -20 -13 -19 -38 11 -34 41 -108 50 -157 19z"/>
</g>
</svg>
